<?xml version="1.0" encoding="iso-8859-1"?>
<!-- Generator: Adobe Illustrator 19.0.0, SVG Export Plug-In . SVG Version: 6.00 Build 0)  -->
<svg version="1.1" id="Capa_1" xmlns="http://www.w3.org/2000/svg" xmlns:xlink="http://www.w3.org/1999/xlink" x="0px" y="0px"
	 viewBox="0 0 297 297" style="enable-background:new 0 0 297 297;" xml:space="preserve">
<g>
	<path d="M297,148.5C297,66.617,230.383,0,148.5,0S0,66.617,0,148.5S66.617,297,148.5,297S297,230.383,297,148.5z M211.044,156.5
		h-54.877v124.252c-2,0.158-5.314,0.248-8,0.248c-2.687,0-5-0.09-8-0.248V156.5H85.956c-1.665,31.936-13.236,61.29-31.687,85.051
		c-3.826-3.874-7.413-7.982-10.743-12.3c15.244-20.59,24.815-45.614,26.398-72.751H16.249c-0.159-2.648-0.249-5.314-0.249-8
		s0.09-5.352,0.249-8h53.676c-1.582-27.137-11.154-52.162-26.397-72.751c3.329-4.318,6.917-8.427,10.742-12.3
		C72.72,79.21,84.292,108.563,85.956,140.5h54.211V16.248c3-0.158,5.313-0.248,8-0.248c2.686,0,6,0.09,8,0.248V140.5h54.877
		c1.664-31.937,13.236-61.29,31.687-85.051c3.825,3.873,7.413,7.981,10.742,12.3c-15.243,20.589-24.815,45.614-26.397,72.751h53.676
		c0.159,2.648,0.249,5.314,0.249,8s-0.09,5.352-0.249,8h-53.676c1.583,27.137,11.154,52.161,26.398,72.751
		c-3.33,4.317-6.917,8.426-10.743,12.3C224.28,217.79,212.709,188.436,211.044,156.5z"/>
</g>
<g>
</g>
<g>
</g>
<g>
</g>
<g>
</g>
<g>
</g>
<g>
</g>
<g>
</g>
<g>
</g>
<g>
</g>
<g>
</g>
<g>
</g>
<g>
</g>
<g>
</g>
<g>
</g>
<g>
</g>
</svg>
